{
	"asset":{
		"generator":"Khronos glTF Blender I/O v4.1.62",
		"version":"2.0"
	},
	"extensionsUsed":[
		"KHR_lights_punctual"
	],
	"extensionsRequired":[
		"KHR_lights_punctual"
	],
	"extensions":{
		"KHR_lights_punctual":{
			"lights":[
				{
					"color":[
						1,
						0.7083765864372253,
						0.23455078899860382
					],
					"intensity":1.5915494309189535,
					"type":"point",
					"name":"Area",
					"extras":{
						"type":1,
						"param0":0.4699999988079071,
						"param1":0.3799999952316284
					}
				}
			]
		}
	},
	"scene":0,
	"scenes":[
		{
			"extras":{
				"mitsuba":{
					"variant":0,
					"available_integrators":{
						"path":{
							"max_depth":65,
							"rr_depth":5,
							"hide_emitters":0
						}
					},
					"active_integrator":0
				}
			},
			"name":"Scene",
			"nodes":[
				0,
				1,
				2,
				3,
				4,
				5,
				6,
				7,
				8
			]
		}
	],
	"nodes":[
		{
			"camera":0,
			"name":"Camera",
			"rotation":[
				0.7071068286895752,
				0,
				0,
				0.7071068286895752
			],
			"translation":[
				0,
				-8.784000396728516,
				1
			]
		},
		{
			"mesh":0,
			"name":"Floor",
			"rotation":[
				0,
				0,
				-0.7071067094802856,
				0.7071068286895752
			],
			"scale":[
				1,
				1,
				2
			]
		},
		{
			"mesh":1,
			"name":"Ceiling",
			"rotation":[
				0,
				-1,
				0,
				7.549790126404332e-08
			],
			"scale":[
				1,
				1,
				2
			],
			"translation":[
				0,
				0,
				2
			]
		},
		{
			"mesh":2,
			"name":"BackWall",
			"rotation":[
				-0.5000000596046448,
				-0.4999999403953552,
				-0.5,
				0.5
			],
			"scale":[
				1,
				1,
				2
			],
			"translation":[
				0,
				1,
				1
			]
		},
		{
			"mesh":3,
			"name":"RightWall",
			"rotation":[
				0.7071068286895752,
				0,
				0.7071068286895752,
				5.338509012631221e-08
			],
			"scale":[
				1,
				1,
				2
			],
			"translation":[
				1,
				0,
				1
			]
		},
		{
			"mesh":4,
			"name":"LeftWall",
			"rotation":[
				0,
				-0.7071068286895752,
				0,
				0.7071068286895752
			],
			"scale":[
				1,
				1,
				2
			],
			"translation":[
				-1,
				0,
				1
			]
		},
		{
			"mesh":5,
			"name":"ShortBox",
			"rotation":[
				0.8019842505455017,
				0.5973451733589172,
				0,
				5.680963965914998e-08
			],
			"scale":[
				0.29740551114082336,
				0.30219709873199463,
				0.30000001192092896
			],
			"translation":[
				0.3286310136318207,
				-0.37459200620651245,
				0.30000001192092896
			]
		},
		{
			"mesh":6,
			"name":"TallBox",
			"rotation":[
				0.986013650894165,
				0.166665181517601,
				0,
				7.563915005448507e-08
			],
			"scale":[
				0.3036448657512665,
				0.29886960983276367,
				0.6000000238418579
			],
			"translation":[
				-0.335438996553421,
				0.2914150059223175,
				0.6000000238418579
			]
		},
		{
			"extensions":{
				"KHR_lights_punctual":{
					"light":0
				}
			},
			"name":"Area",
			"translation":[
				-0.004999999888241291,
				0.029999999329447746,
				1.9989999532699585
			]
		}
	],
	"cameras":[
		{
			"extras":{
				"mitsuba":{
					"samplers":{
						"independent":{
							"sample_count":64,
							"seed":0
						}
					},
					"active_sampler":0,
					"rfilters":{
						"tent":{}
					},
					"active_rfilter":1
				}
			},
			"name":"Camera",
			"perspective":{
				"aspectRatio":1.3333333333333333,
				"yfov":0.2563342779540469,
				"zfar":10000,
				"znear":0.009999999776482582
			},
			"type":"perspective"
		}
	],
	"materials":[
		{
			"doubleSided":true,
			"name":"FloorBSDF",
			"pbrMetallicRoughness":{
				"baseColorFactor":[
					0.7230689525604248,
					0.7083905339241028,
					0.679556667804718,
					1
				],
				"metallicFactor":0,
				"roughnessFactor":0
			}
		},
		{
			"doubleSided":true,
			"name":"CeilingBSDF",
			"pbrMetallicRoughness":{
				"baseColorFactor":[
					0.7230689525604248,
					0.7083905339241028,
					0.679556667804718,
					1
				],
				"metallicFactor":0,
				"roughnessFactor":0
			}
		},
		{
			"doubleSided":true,
			"name":"BackWallBSDF",
			"pbrMetallicRoughness":{
				"baseColorFactor":[
					0.7230689525604248,
					0.7083905339241028,
					0.679556667804718,
					1
				],
				"metallicFactor":0,
				"roughnessFactor":0
			}
		},
		{
			"doubleSided":true,
			"name":"RightWallBSDF",
			"pbrMetallicRoughness":{
				"baseColorFactor":[
					0.14126592874526978,
					0.450778603553772,
					0.0908396989107132,
					1
				],
				"metallicFactor":0,
				"roughnessFactor":0
			}
		},
		{
			"doubleSided":true,
			"name":"LeftWallBSDF",
			"pbrMetallicRoughness":{
				"baseColorFactor":[
					0.6307660341262817,
					0.06480419635772705,
					0.049706704914569855,
					1
				],
				"metallicFactor":0,
				"roughnessFactor":0
			}
		},
		{
			"doubleSided":true,
			"name":"ShortBoxBSDF",
			"pbrMetallicRoughness":{
				"baseColorFactor":[
					0.7230689525604248,
					0.7083905339241028,
					0.679556667804718,
					1
				],
				"metallicFactor":0,
				"roughnessFactor":0
			}
		},
		{
			"doubleSided":true,
			"name":"TallBoxBSDF",
			"pbrMetallicRoughness":{
				"baseColorFactor":[
					0.7230689525604248,
					0.7083905339241028,
					0.679556667804718,
					1
				],
				"metallicFactor":0,
				"roughnessFactor":0
			}
		}
	],
	"meshes":[
		{
			"name":"Floor",
			"primitives":[
				{
					"attributes":{
						"POSITION":0,
						"NORMAL":1,
						"TEXCOORD_0":2,
						"TANGENT":3
					},
					"indices":4,
					"material":0
				}
			]
		},
		{
			"name":"Ceiling",
			"primitives":[
				{
					"attributes":{
						"POSITION":5,
						"NORMAL":6,
						"TEXCOORD_0":7,
						"TANGENT":8
					},
					"indices":4,
					"material":1
				}
			]
		},
		{
			"name":"BackWall",
			"primitives":[
				{
					"attributes":{
						"POSITION":9,
						"NORMAL":10,
						"TEXCOORD_0":11,
						"TANGENT":12
					},
					"indices":4,
					"material":2
				}
			]
		},
		{
			"name":"RightWall",
			"primitives":[
				{
					"attributes":{
						"POSITION":13,
						"NORMAL":14,
						"TEXCOORD_0":15,
						"TANGENT":16
					},
					"indices":4,
					"material":3
				}
			]
		},
		{
			"name":"LeftWall",
			"primitives":[
				{
					"attributes":{
						"POSITION":17,
						"NORMAL":18,
						"TEXCOORD_0":19,
						"TANGENT":20
					},
					"indices":4,
					"material":4
				}
			]
		},
		{
			"name":"ShortBox",
			"primitives":[
				{
					"attributes":{
						"POSITION":21,
						"NORMAL":22,
						"TEXCOORD_0":23,
						"TANGENT":24
					},
					"indices":25,
					"material":5
				}
			]
		},
		{
			"name":"TallBox",
			"primitives":[
				{
					"attributes":{
						"POSITION":26,
						"NORMAL":27,
						"TEXCOORD_0":28,
						"TANGENT":29
					},
					"indices":25,
					"material":6
				}
			]
		}
	],
	"accessors":[
		{
			"bufferView":0,
			"componentType":5126,
			"count":4,
			"max":[
				1,
				1,
				0
			],
			"min":[
				-1,
				-1,
				0
			],
			"type":"VEC3"
		},
		{
			"bufferView":1,
			"componentType":5126,
			"count":4,
			"type":"VEC3"
		},
		{
			"bufferView":2,
			"componentType":5126,
			"count":4,
			"type":"VEC2"
		},
		{
			"bufferView":3,
			"componentType":5126,
			"count":4,
			"type":"VEC4"
		},
		{
			"bufferView":4,
			"componentType":5123,
			"count":6,
			"type":"SCALAR"
		},
		{
			"bufferView":5,
			"componentType":5126,
			"count":4,
			"max":[
				1,
				1,
				0
			],
			"min":[
				-1,
				-1,
				0
			],
			"type":"VEC3"
		},
		{
			"bufferView":6,
			"componentType":5126,
			"count":4,
			"type":"VEC3"
		},
		{
			"bufferView":7,
			"componentType":5126,
			"count":4,
			"type":"VEC2"
		},
		{
			"bufferView":8,
			"componentType":5126,
			"count":4,
			"type":"VEC4"
		},
		{
			"bufferView":9,
			"componentType":5126,
			"count":4,
			"max":[
				1,
				1,
				0
			],
			"min":[
				-1,
				-1,
				0
			],
			"type":"VEC3"
		},
		{
			"bufferView":10,
			"componentType":5126,
			"count":4,
			"type":"VEC3"
		},
		{
			"bufferView":11,
			"componentType":5126,
			"count":4,
			"type":"VEC2"
		},
		{
			"bufferView":12,
			"componentType":5126,
			"count":4,
			"type":"VEC4"
		},
		{
			"bufferView":13,
			"componentType":5126,
			"count":4,
			"max":[
				1,
				1,
				0
			],
			"min":[
				-1,
				-1,
				0
			],
			"type":"VEC3"
		},
		{
			"bufferView":14,
			"componentType":5126,
			"count":4,
			"type":"VEC3"
		},
		{
			"bufferView":15,
			"componentType":5126,
			"count":4,
			"type":"VEC2"
		},
		{
			"bufferView":16,
			"componentType":5126,
			"count":4,
			"type":"VEC4"
		},
		{
			"bufferView":17,
			"componentType":5126,
			"count":4,
			"max":[
				1,
				1,
				0
			],
			"min":[
				-1,
				-1,
				0
			],
			"type":"VEC3"
		},
		{
			"bufferView":18,
			"componentType":5126,
			"count":4,
			"type":"VEC3"
		},
		{
			"bufferView":19,
			"componentType":5126,
			"count":4,
			"type":"VEC2"
		},
		{
			"bufferView":20,
			"componentType":5126,
			"count":4,
			"type":"VEC4"
		},
		{
			"bufferView":21,
			"componentType":5126,
			"count":24,
			"max":[
				1,
				1,
				1
			],
			"min":[
				-1,
				-1,
				-1
			],
			"type":"VEC3"
		},
		{
			"bufferView":22,
			"componentType":5126,
			"count":24,
			"type":"VEC3"
		},
		{
			"bufferView":23,
			"componentType":5126,
			"count":24,
			"type":"VEC2"
		},
		{
			"bufferView":24,
			"componentType":5126,
			"count":24,
			"type":"VEC4"
		},
		{
			"bufferView":25,
			"componentType":5123,
			"count":36,
			"type":"SCALAR"
		},
		{
			"bufferView":26,
			"componentType":5126,
			"count":24,
			"max":[
				1,
				1,
				1
			],
			"min":[
				-1,
				-1,
				-1
			],
			"type":"VEC3"
		},
		{
			"bufferView":27,
			"componentType":5126,
			"count":24,
			"type":"VEC3"
		},
		{
			"bufferView":28,
			"componentType":5126,
			"count":24,
			"type":"VEC2"
		},
		{
			"bufferView":29,
			"componentType":5126,
			"count":24,
			"type":"VEC4"
		}
	],
	"bufferViews":[
		{
			"buffer":0,
			"byteLength":48,
			"byteOffset":0,
			"target":34962
		},
		{
			"buffer":0,
			"byteLength":48,
			"byteOffset":48,
			"target":34962
		},
		{
			"buffer":0,
			"byteLength":32,
			"byteOffset":96,
			"target":34962
		},
		{
			"buffer":0,
			"byteLength":64,
			"byteOffset":128,
			"target":34962
		},
		{
			"buffer":0,
			"byteLength":12,
			"byteOffset":192,
			"target":34963
		},
		{
			"buffer":0,
			"byteLength":48,
			"byteOffset":204,
			"target":34962
		},
		{
			"buffer":0,
			"byteLength":48,
			"byteOffset":252,
			"target":34962
		},
		{
			"buffer":0,
			"byteLength":32,
			"byteOffset":300,
			"target":34962
		},
		{
			"buffer":0,
			"byteLength":64,
			"byteOffset":332,
			"target":34962
		},
		{
			"buffer":0,
			"byteLength":48,
			"byteOffset":396,
			"target":34962
		},
		{
			"buffer":0,
			"byteLength":48,
			"byteOffset":444,
			"target":34962
		},
		{
			"buffer":0,
			"byteLength":32,
			"byteOffset":492,
			"target":34962
		},
		{
			"buffer":0,
			"byteLength":64,
			"byteOffset":524,
			"target":34962
		},
		{
			"buffer":0,
			"byteLength":48,
			"byteOffset":588,
			"target":34962
		},
		{
			"buffer":0,
			"byteLength":48,
			"byteOffset":636,
			"target":34962
		},
		{
			"buffer":0,
			"byteLength":32,
			"byteOffset":684,
			"target":34962
		},
		{
			"buffer":0,
			"byteLength":64,
			"byteOffset":716,
			"target":34962
		},
		{
			"buffer":0,
			"byteLength":48,
			"byteOffset":780,
			"target":34962
		},
		{
			"buffer":0,
			"byteLength":48,
			"byteOffset":828,
			"target":34962
		},
		{
			"buffer":0,
			"byteLength":32,
			"byteOffset":876,
			"target":34962
		},
		{
			"buffer":0,
			"byteLength":64,
			"byteOffset":908,
			"target":34962
		},
		{
			"buffer":0,
			"byteLength":288,
			"byteOffset":972,
			"target":34962
		},
		{
			"buffer":0,
			"byteLength":288,
			"byteOffset":1260,
			"target":34962
		},
		{
			"buffer":0,
			"byteLength":192,
			"byteOffset":1548,
			"target":34962
		},
		{
			"buffer":0,
			"byteLength":384,
			"byteOffset":1740,
			"target":34962
		},
		{
			"buffer":0,
			"byteLength":72,
			"byteOffset":2124,
			"target":34963
		},
		{
			"buffer":0,
			"byteLength":288,
			"byteOffset":2196,
			"target":34962
		},
		{
			"buffer":0,
			"byteLength":288,
			"byteOffset":2484,
			"target":34962
		},
		{
			"buffer":0,
			"byteLength":192,
			"byteOffset":2772,
			"target":34962
		},
		{
			"buffer":0,
			"byteLength":384,
			"byteOffset":2964,
			"target":34962
		}
	],
	"buffers":[
		{
			"byteLength":3348,
			"uri":"cornell-box.bin"
		}
	]
}
